<svg width="160" height="26" viewBox="0 0 160 26" fill="none" xmlns="http://www.w3.org/2000/svg">
<g clip-path="url(#clip0_1_52)">
<path d="M8.90279 18.572C7.3034 18.598 5.72836 18.1791 4.35434 17.3621C3.0157 16.559 1.91567 15.4148 1.16739 14.0471C0.372374 12.5874 -0.0298459 10.9471 -4.33843e-05 9.28624C-0.0265555 7.63629 0.375639 6.0076 1.16739 4.5587C1.91712 3.19459 3.01567 2.05289 4.35131 1.24972C5.72532 0.432743 7.30036 0.0137906 8.89976 0.0398501C10.4073 0.017742 11.9025 0.31356 13.2875 0.907928C14.5238 1.43283 15.5917 2.28665 16.3744 3.37605L13.8454 6.41584C13.3237 5.72106 12.6535 5.15075 11.8835 4.74622C11.1104 4.301 10.2351 4.06242 9.34247 4.05358C8.45309 4.03691 7.5779 4.27748 6.82263 4.74622C6.08934 5.20531 5.49257 5.85176 5.09422 6.61849C4.66845 7.44268 4.45385 8.3592 4.46957 9.28624C4.45322 10.2155 4.67446 11.1336 5.11241 11.954C5.52265 12.7228 6.1294 13.3698 6.87115 13.8293C7.62375 14.291 8.49232 14.5302 9.37583 14.5189C10.2221 14.5203 11.0556 14.3124 11.8017 13.914C12.5806 13.4934 13.2705 12.9265 13.8333 12.2444L16.3713 15.269C15.5297 16.3179 14.4354 17.1368 13.1905 17.6494C11.8419 18.2535 10.3811 18.5678 8.90279 18.572V18.572Z" fill="#008C4C"/>
<path d="M25.0165 18.5715C23.5816 18.5896 22.1758 18.1672 20.9896 17.3617C19.7666 16.522 18.7808 15.3824 18.1271 14.0527C17.3961 12.5711 17.0301 10.9369 17.0597 9.28581C17.0252 7.61973 17.3912 5.96963 18.1271 4.47357C18.787 3.14535 19.7923 2.01824 21.0381 1.20996C22.2865 0.418067 23.7404 0.00896998 25.2197 0.0333674C26.3715 0.00750596 27.5116 0.268434 28.537 0.792558C29.4405 1.26061 30.2182 1.93791 30.8052 2.76766V0.405401H35.4082V18.2509H30.7718V15.8372C30.1022 16.6554 29.266 17.3224 28.3187 17.7942C27.2975 18.3169 26.1642 18.5837 25.0165 18.5715ZM26.2688 14.5548C26.9003 14.5758 27.5286 14.4564 28.1081 14.2053C28.6876 13.9542 29.2039 13.5776 29.6195 13.1029C30.4787 12.135 30.9082 10.8627 30.9082 9.28581C30.9082 7.70896 30.4787 6.43759 29.6195 5.47171C29.204 4.99664 28.6879 4.61965 28.1084 4.36803C27.5289 4.11641 26.9005 3.99645 26.2688 4.01685C25.6449 3.99793 25.0246 4.11881 24.4536 4.37058C23.8827 4.62236 23.3756 4.99863 22.9697 5.47171C22.1227 6.4396 21.6992 7.71097 21.6992 9.28581C21.6992 10.8607 22.1227 12.133 22.9697 13.1029C23.3757 13.5756 23.8829 13.9515 24.4539 14.2027C25.0249 14.454 25.6451 14.5743 26.2688 14.5548V14.5548Z" fill="#008C4C"/>
<path d="M39.0318 18.2358V0.405381H43.5014L43.5681 3.34233C44.1473 2.38126 44.9411 1.56661 45.8878 0.961919C46.7853 0.362103 47.8399 0.0391488 48.9201 0.033348C49.2998 0.0324057 49.6789 0.0607201 50.0542 0.118039C50.3636 0.163323 50.6682 0.237242 50.9639 0.338839L49.7116 5.40212C49.4113 5.24929 49.0922 5.13641 48.7624 5.06639C48.385 4.97643 47.9983 4.93075 47.6102 4.93028C47.0903 4.91553 46.5729 5.00724 46.09 5.19972C45.6071 5.3922 45.1688 5.68138 44.8023 6.0494C44.4263 6.4238 44.1314 6.8712 43.9358 7.3639C43.7402 7.8566 43.6481 8.38411 43.6652 8.91376V18.2358H39.0318Z" fill="#008C4C"/>
<path d="M60.2245 18.5715C58.4722 18.6099 56.739 18.2029 55.1879 17.3889C53.7856 16.6415 52.6192 15.5199 51.819 14.1495C50.9969 12.7107 50.5779 11.0778 50.6061 9.42191C50.5699 7.72046 50.9729 6.03832 51.7765 4.53708C52.5268 3.15765 53.6389 2.0076 54.9938 1.20995C56.427 0.38345 58.06 -0.0350249 59.7151 8.81489e-05C61.2137 -0.0245395 62.6896 0.36655 63.9784 1.12974C65.2671 1.89293 66.318 2.99822 67.0138 4.32233C67.7413 5.7282 68.0853 7.30014 68.0115 8.8805L67.9781 10.3323H55.1121C55.318 11.5421 55.977 12.6286 56.9557 13.3721C57.9382 14.1162 59.1854 14.4872 60.6976 14.4852C61.4525 14.4942 62.2031 14.3693 62.9142 14.1162C63.6986 13.7976 64.425 13.352 65.0641 12.7974L67.2989 15.9038C66.3208 16.7646 65.1893 17.4346 63.9633 17.8789C62.7685 18.3306 61.5023 18.5651 60.2245 18.5715V18.5715ZM59.7363 3.98357C57.1872 3.98357 55.6528 5.13193 55.1333 7.42866H63.5964V7.29255C63.5717 6.83338 63.451 6.38443 63.2421 5.9745C63.0333 5.56458 62.7408 5.20272 62.3835 4.91214C61.6429 4.29315 60.7023 3.96321 59.7363 3.98357V3.98357Z" fill="#008C4C"/>
<path d="M78.8762 18.5715C77.1218 18.6118 75.3861 18.2047 73.8335 17.3889C72.4299 16.6432 71.2631 15.5212 70.4646 14.1495C69.6412 12.7112 69.2222 11.0779 69.2517 9.42191C69.2183 7.71966 69.6245 6.03746 70.4312 4.53708C71.1803 3.15776 72.2913 2.00766 73.6455 1.20995C75.0798 0.383485 76.7137 -0.0349673 78.3698 8.10079e-05C79.8673 -0.023419 81.342 0.368204 82.6296 1.13133C83.9172 1.89446 84.9671 2.99914 85.6625 4.32232C86.3923 5.72742 86.7375 7.29974 86.6631 8.88049L86.6298 10.3323H73.7637C73.9687 11.5432 74.6292 12.6304 75.6104 13.3721C76.5898 14.1162 77.8391 14.4852 79.3492 14.4852C80.1052 14.4943 80.8567 14.3693 81.5689 14.1162C82.352 13.7967 83.0773 13.3512 83.7157 12.7974L85.9505 15.9038C84.9726 16.7648 83.8411 17.4348 82.615 17.8789C81.4201 18.3302 80.1539 18.5648 78.8762 18.5715ZM78.4031 3.98356C75.852 3.98356 74.3166 5.13193 73.7971 7.42865H82.2602V7.29254C82.2355 6.83337 82.1148 6.38442 81.9059 5.9745C81.697 5.56457 81.4046 5.20271 81.0473 4.91213C80.3076 4.29359 79.3681 3.96367 78.4031 3.98356V3.98356Z" fill="#008C4C"/>
<path d="M91.2995 26.0122L94.6078 18.3356L86.4933 0.405396H91.7392L96.2877 11.0764C96.4908 11.5483 96.694 12.1018 96.8941 12.7309C96.9851 12.4829 97.07 12.2409 97.1488 12.005L97.4035 11.2458L101.279 0.405396H106.591L99.0774 18.2509L96.0056 26.0122H91.2995Z" fill="#008C4C"/>
<path d="M115.946 18.5715C114.243 18.5992 112.562 18.1821 111.07 17.3616C109.674 16.5875 108.516 15.4488 107.719 14.0677C106.892 12.6067 106.474 10.9511 106.507 9.27364C106.476 7.60699 106.895 5.96278 107.719 4.51282C108.519 3.13719 109.677 2.00314 111.07 1.23106C112.562 0.410531 114.243 -0.00655868 115.946 0.0211976C117.626 -0.000721538 119.283 0.416383 120.752 1.23106C122.142 2.00863 123.294 3.14683 124.088 4.52492C124.912 5.97488 125.331 7.61909 125.301 9.28574C125.334 10.9632 124.915 12.6188 124.088 14.0798C123.296 15.4589 122.143 16.5975 120.752 17.3737C119.282 18.1842 117.625 18.5971 115.946 18.5715V18.5715ZM115.946 14.5547C116.805 14.5631 117.648 14.3224 118.372 13.8621C119.093 13.4023 119.673 12.7535 120.049 11.9868C120.455 11.145 120.658 10.2198 120.64 9.28574C120.657 8.35166 120.455 7.42655 120.049 6.58471C119.675 5.82128 119.094 5.17781 118.372 4.72757C117.644 4.27672 116.803 4.04269 115.946 4.05307C115.074 4.03705 114.217 4.27117 113.475 4.72757C112.75 5.17977 112.163 5.82227 111.78 6.58471C111.363 7.42334 111.155 8.34986 111.173 9.28574C111.155 10.2216 111.363 11.1482 111.78 11.9868C112.165 12.7526 112.751 13.4005 113.475 13.8621C114.213 14.328 115.072 14.5688 115.946 14.5547V14.5547Z" fill="#008C4C"/>
<path d="M133.988 18.5715C132.023 18.5715 130.483 17.9353 129.367 16.663C128.251 15.3906 127.692 13.6403 127.69 11.4121V0.405396H132.296V10.5683C132.296 11.8548 132.606 12.863 133.227 13.5929C133.541 13.9583 133.935 14.2471 134.378 14.4374C134.821 14.6278 135.302 14.7144 135.783 14.6909C136.277 14.7077 136.768 14.6268 137.23 14.4529C137.692 14.279 138.114 14.0155 138.473 13.6776C138.825 13.3445 139.102 12.9407 139.286 12.4928C139.47 12.0449 139.557 11.5632 139.54 11.0794V0.405396H144.143V18.2509H139.744L139.64 15.7283C139.011 16.6008 138.178 17.3076 137.215 17.7881C136.219 18.3069 135.112 18.5758 133.988 18.5715V18.5715Z" fill="#008C4C"/>
<path d="M147.8 18.2358V0.405381H152.267L152.337 3.34233C152.914 2.38272 153.704 1.56829 154.647 0.961919C155.545 0.363079 156.6 0.0402173 157.68 0.033348C158.059 0.0324057 158.438 0.0607201 158.814 0.118039C159.123 0.163098 159.428 0.237022 159.723 0.338839L158.471 5.40212C158.172 5.24928 157.854 5.1364 157.525 5.06639C157.147 4.97643 156.761 4.93075 156.373 4.93028C155.854 4.91583 155.337 5.00769 154.855 5.20018C154.374 5.39267 153.936 5.6817 153.571 6.0494C153.197 6.42265 152.903 6.86819 152.708 7.35868C152.513 7.84917 152.421 8.37424 152.437 8.90166V18.2358H147.8Z" fill="#008C4C"/>
</g>
<defs>
<clipPath id="clip0_1_52">
<rect width="159.714" height="26" fill="white"/>
</clipPath>
</defs>
</svg>
